<?xml version="1.0" encoding="UTF-8"?>
<svg version="1.1" xmlns="http://www.w3.org/2000/svg" width="779" height="752">
<path d="M0 0 C1.64054855 -0.00101212 1.64054855 -0.00101212 3.3142395 -0.00204468 C20.22453862 0.01451538 36.77498259 0.52843422 53.5 3.25 C54.57040527 3.42160645 55.64081055 3.59321289 56.74365234 3.77001953 C89.36437681 9.17220847 120.68042249 18.99134638 150.5 33.25 C151.71864746 33.82355225 151.71864746 33.82355225 152.96191406 34.40869141 C182.02234485 48.13897359 208.70039206 66.55620598 232.35546875 88.2890625 C234.30634883 90.07292734 236.29748048 91.78952794 238.3125 93.5 C242.04138907 96.75140937 245.55740463 100.19887923 249.0625 103.6875 C249.85781128 104.47592285 249.85781128 104.47592285 250.66918945 105.28027344 C264.84359353 119.50927004 277.33044486 135.59285886 288.5 152.25 C288.98146484 152.96285156 289.46292969 153.67570313 289.95898438 154.41015625 C324.31126157 205.686319 346.42292755 269.50362345 346.703125 331.53125 C346.71013931 332.57499283 346.71715363 333.61873566 346.72438049 334.69410706 C346.74179486 338.04611573 346.74823329 341.39794774 346.75 344.75 C346.75101212 346.46774124 346.75101212 346.46774124 346.75204468 348.22018433 C346.73623407 365.09246976 346.33280833 381.57926843 343.5 398.25 C343.32839355 399.301875 343.15678711 400.35375 342.97998047 401.4375 C329.9047468 479.95901048 289.44468955 557.04656133 227.5 608.25 C226.69900879 608.92168213 226.69900879 608.92168213 225.88183594 609.60693359 C167.64827319 658.36314741 91.96096266 691.10605126 15.21875 691.453125 C14.17523376 691.46018463 13.13171753 691.46724426 12.05657959 691.47451782 C-31.31928959 691.7013108 -31.31928959 691.7013108 -51.5 688.25 C-52.70849609 688.05132324 -53.91699219 687.85264648 -55.16210938 687.64794922 C-105.15583071 679.25910835 -154.06291396 660.77640085 -195.5 631.25 C-196.2420166 630.72293457 -196.9840332 630.19586914 -197.74853516 629.65283203 C-208.44712343 622.01098326 -218.725586 614.04433166 -228.5 605.25 C-229.04317871 604.76321777 -229.58635742 604.27643555 -230.14599609 603.77490234 C-241.13972455 593.88282827 -252.06612818 583.66287141 -261.5 572.25 C-261.94778809 571.71600586 -262.39557617 571.18201172 -262.85693359 570.63183594 C-271.30041214 560.54709393 -279.15654451 550.16187411 -286.5 539.25 C-286.98291504 538.53569824 -287.46583008 537.82139648 -287.96337891 537.08544922 C-322.31203265 485.80904491 -344.42293553 421.99461129 -344.703125 359.96875 C-344.71013931 358.92500717 -344.71715363 357.88126434 -344.72438049 356.80589294 C-344.74179486 353.45388427 -344.74823329 350.10205226 -344.75 346.75 C-344.75067474 345.60483917 -344.75134949 344.45967834 -344.75204468 343.27981567 C-344.73623407 326.40753024 -344.33280833 309.92073157 -341.5 293.25 C-341.32839355 292.198125 -341.15678711 291.14625 -340.97998047 290.0625 C-326.26993467 201.723351 -277.5540494 120.38855167 -203.20922852 65.59887695 C-199.67322884 63.09836974 -196.0968769 60.66190938 -192.5 58.25 C-191.78714844 57.76853516 -191.07429687 57.28707031 -190.33984375 56.79101562 C-144.02599838 25.76322476 -90.70910345 7.49272548 -35.5 1.25 C-34.62827148 1.146875 -33.75654297 1.04375 -32.85839844 0.9375 C-21.95262422 -0.1692839 -10.94964662 0.00606071 0 0 Z " fill="#18499E" transform="translate(388.5,26.75)"/>
<path d="M0 0 C1.64054855 -0.00101212 1.64054855 -0.00101212 3.3142395 -0.00204468 C20.22453862 0.01451538 36.77498259 0.52843422 53.5 3.25 C54.57040527 3.42160645 55.64081055 3.59321289 56.74365234 3.77001953 C89.36437681 9.17220847 120.68042249 18.99134638 150.5 33.25 C151.71864746 33.82355225 151.71864746 33.82355225 152.96191406 34.40869141 C182.02234485 48.13897359 208.70039206 66.55620598 232.35546875 88.2890625 C234.30634883 90.07292734 236.29748048 91.78952794 238.3125 93.5 C242.04138907 96.75140937 245.55740463 100.19887923 249.0625 103.6875 C249.85781128 104.47592285 249.85781128 104.47592285 250.66918945 105.28027344 C264.84359353 119.50927004 277.33044486 135.59285886 288.5 152.25 C288.98146484 152.96285156 289.46292969 153.67570313 289.95898438 154.41015625 C324.31126157 205.686319 346.42292755 269.50362345 346.703125 331.53125 C346.71013931 332.57499283 346.71715363 333.61873566 346.72438049 334.69410706 C346.74179486 338.04611573 346.74823329 341.39794774 346.75 344.75 C346.75101212 346.46774124 346.75101212 346.46774124 346.75204468 348.22018433 C346.73623407 365.09246976 346.33280833 381.57926843 343.5 398.25 C343.32839355 399.301875 343.15678711 400.35375 342.97998047 401.4375 C328.76307421 486.8151676 283.54328716 562.90057052 216.5 617.25 C213.79543284 614.93303004 212.14788071 612.1493283 210.34228516 609.1105957 C195.64809079 584.38745159 171.57680356 556.28840178 145.5 543.25 C146.9118968 538.16872305 149.14999519 534.44861539 152.125 530.1875 C153.02277054 528.87371752 153.91856826 527.558585 154.8125 526.2421875 C155.26109375 525.58186523 155.7096875 524.92154297 156.171875 524.24121094 C159.4381306 519.3442292 162.45834069 514.28827924 165.5 509.25 C168.80689267 513.41956032 169.62933795 516.67767506 170.0625 521.9375 C170.14628906 522.93136719 170.23007812 523.92523437 170.31640625 524.94921875 C170.37699219 525.70847656 170.43757812 526.46773437 170.5 527.25 C172.38795895 523.64490481 174.27166387 520.03761926 176.15185547 516.4284668 C176.78877897 515.20719076 177.42675878 513.98646489 178.06591797 512.76635742 C186.81117477 496.30946896 186.81117477 496.30946896 193.25 478.875 C193.44464844 478.22917969 193.63929688 477.58335937 193.83984375 476.91796875 C195.10206083 472.70775474 196.29829349 468.477822 197.5 464.25 C202.98125566 469.22600025 203.86836685 476.17570872 204.5 483.25 C214.60256892 461.37901304 215.46313219 437.17242788 208.5 414.25 C208.11994726 412.93039024 207.74226299 411.61009557 207.3671875 410.2890625 C207.08101562 409.28617187 206.79484375 408.28328125 206.5 407.25 C210.61176935 405.8340674 214.73043119 404.65762628 218.9375 403.5625 C236.82484943 398.45182873 253.71772685 388.67733386 267.5 376.25 C268.32886719 375.50363281 269.15773438 374.75726563 270.01171875 373.98828125 C284.72392064 360.01515386 294.41670873 343.12878652 300.875 324.0625 C301.20910889 323.07709229 301.54321777 322.09168457 301.88745117 321.07641602 C305.52845986 309.82162235 306.87148145 298.99404717 306.8125 287.1875 C306.80512817 285.4235791 306.80512817 285.4235791 306.79760742 283.62402344 C306.37161107 251.5803593 294.72124358 223.37210481 272.5 200.25 C271.695625 199.3940625 270.89125 198.538125 270.0625 197.65625 C253.86490259 180.85124269 231.37978032 169.52291262 208.5 165.25 C207.66082031 165.05792969 206.82164062 164.86585938 205.95703125 164.66796875 C201.40146075 163.68622565 197.43500375 163.20227866 192.7890625 163.64453125 C182.4526071 164.38110274 182.4526071 164.38110274 177.5 162.25 C172.42370706 157.28557765 169.81392397 150.33962076 166.87109375 143.99121094 C164.83682694 139.92412622 162.28586005 136.39265514 159.5 132.8125 C158.75762085 131.85210815 158.75762085 131.85210815 158.00024414 130.87231445 C156.51811496 128.98295643 155.01448688 127.1134923 153.5 125.25 C152.74952393 124.32018311 152.74952393 124.32018311 151.98388672 123.37158203 C122.92891061 87.64825075 78.92462764 65.76071946 33.5 60.25 C28.84177779 59.78026331 24.1764741 59.47123613 19.5 59.25 C19.5 58.59 19.5 57.93 19.5 57.25 C21.6847753 55.97428516 23.87261619 54.70439327 26.0625 53.4375 C26.97612305 52.90286133 26.97612305 52.90286133 27.90820312 52.35742188 C32.00419646 49.99518233 36.12127791 48.03642845 40.5 46.25 C25.27848277 46.72516039 11.28439232 48.15096683 -3.109375 53.578125 C-5.5 54.25 -5.5 54.25 -8.5 53.25 C-0.38230853 46.11115698 8.12683958 40.56012805 17.5 35.25 C18.47582031 34.69699219 19.45164062 34.14398438 20.45703125 33.57421875 C22.46421204 32.45209405 24.47605328 31.34150514 26.5 30.25 C4.15001828 34.19978125 -19.3479112 41.04901634 -36.3046875 56.94140625 C-41.43603895 61.49120454 -46.77264225 62.41856656 -53.31738281 63.72509766 C-92.27989024 71.5823524 -130.86900429 97.52050865 -154.22802734 129.51318359 C-155.49251945 131.23978568 -156.78459585 132.9425984 -158.08203125 134.64453125 C-158.93221889 135.78196644 -159.77987975 136.92129467 -160.625 138.0625 C-161.04458984 138.62283936 -161.46417969 139.18317871 -161.89648438 139.76049805 C-164.23061195 143.01375684 -165.94102893 146.13484561 -167.38671875 149.875 C-171.12318984 159.22874868 -171.12318984 159.22874868 -174.5 162.25 C-180.37541919 164.36744426 -186.80766183 163.61529953 -192.93945312 163.30126953 C-198.95032906 163.18091446 -204.69503411 164.827719 -210.5 166.25 C-211.68335938 166.50394531 -212.86671875 166.75789062 -214.0859375 167.01953125 C-243.68146415 173.92936103 -269.86092902 193.74867282 -286.1015625 219.24609375 C-292.85669709 230.31986322 -298.03148857 241.72919928 -301.5 254.25 C-301.8196875 255.38566406 -302.139375 256.52132813 -302.46875 257.69140625 C-306.61554202 275.48805535 -306.82775046 297.73643733 -301.5 315.25 C-301.26893555 316.04132324 -301.03787109 316.83264648 -300.79980469 317.64794922 C-290.97325123 350.92844632 -270.45072444 377.19998871 -240.0234375 394.19140625 C-228.79697604 400.05805597 -217.0454435 404.27224773 -204.5 406.25 C-205.78968396 412.20238753 -207.22076424 418.08659778 -208.81640625 423.96484375 C-210.7491842 433.25322234 -210.6536268 442.61088329 -210.625 452.0625 C-210.62886719 453.35865234 -210.63273438 454.65480469 -210.63671875 455.99023438 C-210.63542969 457.23740234 -210.63414062 458.48457031 -210.6328125 459.76953125 C-210.63112061 461.45719604 -210.63112061 461.45719604 -210.62939453 463.17895508 C-210.51107655 465.98710953 -210.14092053 468.51924574 -209.5 471.25 C-208.943125 469.6103125 -208.943125 469.6103125 -208.375 467.9375 C-202.95989526 453.47994763 -202.95989526 453.47994763 -198.5 451.25 C-198.40203125 451.95640625 -198.3040625 452.6628125 -198.203125 453.390625 C-195.87391038 469.37385634 -192.75916358 484.96134177 -187.5 500.25 C-187.1596875 501.24386719 -186.819375 502.23773437 -186.46875 503.26171875 C-184.07370133 510.03159423 -181.312788 516.64455933 -178.5 523.25 C-178.42652344 521.63931641 -178.42652344 521.63931641 -178.3515625 519.99609375 C-178.27646602 518.55987358 -178.20092124 517.12367681 -178.125 515.6875 C-178.0940625 514.98302734 -178.063125 514.27855469 -178.03125 513.55273438 C-177.77047442 508.83704259 -176.95341877 504.74614504 -175.5 500.25 C-171.65496205 503.69543816 -169.24218168 507.6515874 -166.5625 512 C-160.47503404 521.66362883 -153.59870976 531.15129024 -145.5 539.25 C-145.5 540.24 -145.5 541.23 -145.5 542.25 C-147.54331921 544.03941564 -149.5687387 545.64510779 -151.75 547.25 C-158.72103679 552.55283768 -165.1733927 558.19846259 -171.5 564.25 C-172.44875 565.1575 -173.3975 566.065 -174.375 567 C-180.57823604 573.06538635 -186.18416218 579.39789377 -191.5 586.25 C-191.9655127 586.84441895 -192.43102539 587.43883789 -192.91064453 588.05126953 C-200.19654714 597.3869995 -206.64401007 606.95765407 -212.5 617.25 C-230.6770066 609.05990047 -248.91208677 587.43102335 -261.5 572.25 C-261.94923828 571.71455566 -262.39847656 571.17911133 -262.86132812 570.62744141 C-271.3031539 560.54414951 -279.15776654 550.16005826 -286.5 539.25 C-286.98291504 538.53569824 -287.46583008 537.82139648 -287.96337891 537.08544922 C-322.31203265 485.80904491 -344.42293553 421.99461129 -344.703125 359.96875 C-344.71013931 358.92500717 -344.71715363 357.88126434 -344.72438049 356.80589294 C-344.74179486 353.45388427 -344.74823329 350.10205226 -344.75 346.75 C-344.75067474 345.60483917 -344.75134949 344.45967834 -344.75204468 343.27981567 C-344.73623407 326.40753024 -344.33280833 309.92073157 -341.5 293.25 C-341.32839355 292.198125 -341.15678711 291.14625 -340.97998047 290.0625 C-326.26993467 201.723351 -277.5540494 120.38855167 -203.20922852 65.59887695 C-199.67322884 63.09836974 -196.0968769 60.66190938 -192.5 58.25 C-191.78714844 57.76853516 -191.07429687 57.28707031 -190.33984375 56.79101562 C-144.02599838 25.76322476 -90.70910345 7.49272548 -35.5 1.25 C-34.62827148 1.146875 -33.75654297 1.04375 -32.85839844 0.9375 C-21.95262422 -0.1692839 -10.94964662 0.00606071 0 0 Z " fill="#F69F1C" transform="translate(388.5,26.75)"/>
<path d="M0 0 C0.64582031 0.24137695 1.29164063 0.48275391 1.95703125 0.73144531 C12.00936041 4.5515226 23.37756947 9.59781633 30.60546875 17.828125 C31.92994766 19.20584467 31.92994766 19.20584467 33.828125 18.94140625 C36.79392965 17.65586862 39.15141352 15.86005827 41.75 13.9375 C61.90387576 -0.47552207 83.28354027 -6.06133928 107.92578125 -3.609375 C124.43513259 -0.69266061 138.04990904 9.97007299 148.0546875 23.09375 C161.19285696 42.72185859 164.85065806 64.60258127 160.9375 87.8125 C159.03341089 96.01265735 155.6906475 103.47312947 152 111 C151.525625 111.98871094 151.05125 112.97742188 150.5625 113.99609375 C147.47334479 120.04276403 143.66221201 125.30865068 139.42651367 130.58666992 C137.26849911 133.27967389 135.37748137 135.82414019 134 139 C134.53367187 139.54785156 135.06734375 140.09570312 135.6171875 140.66015625 C150.85171407 156.86990338 162.06051222 177.27584501 167 199 C167.37049841 200.38852851 167.74301176 201.77652043 168.1171875 203.1640625 C176.536039 236.13103988 169.47446592 271.75986288 152.70605469 300.94824219 C148.6667349 307.75403036 144.19876888 314.01840492 139 320 C138.29101562 320.83015625 137.58203125 321.6603125 136.8515625 322.515625 C127.45840976 333.2600734 117.09304251 341.55125287 105 349 C104.42185547 349.35980957 103.84371094 349.71961914 103.24804688 350.09033203 C71.43711247 369.51107183 33.94101317 371.80165033 -1.5625 363.3125 C-20.03054919 358.06431379 -37.52232432 348.58294632 -52 336 C-52.83015625 335.29101562 -53.6603125 334.58203125 -54.515625 333.8515625 C-81.11773399 310.59511752 -97.54627826 277.28101333 -100 242 C-101.86876034 205.34797787 -91.19793048 170.91322779 -66.65234375 143.3046875 C-64.61155293 140.93082957 -64.61155293 140.93082957 -65 137 C-66.41294577 135.10437378 -66.41294577 135.10437378 -68.375 133.25 C-86.05147197 114.22585375 -95.91556305 88.2061737 -95.23828125 62.36328125 C-94.46612668 45.21992835 -88.61976114 29.83338063 -77 17 C-76.41992188 16.32839844 -75.83984375 15.65679687 -75.2421875 14.96484375 C-56.37610535 -5.51945884 -25.37966976 -9.74810043 0 0 Z " fill="#71B2E1" transform="translate(354,202)"/>
<path d="M0 0 C5.26625297 3.37119982 10.18054546 7.11599798 15.09375 10.98046875 C14.95662598 11.9034375 14.81950195 12.82640625 14.67822266 13.77734375 C13.14942856 24.85802148 12.67356409 35.80529996 12.46875 46.98046875 C12.43043751 48.73829776 12.39137889 50.49611066 12.3515625 52.25390625 C12.25705983 56.49595823 12.17252593 60.73809679 12.09375 64.98046875 C11.31974854 64.20106934 10.54574707 63.42166992 9.74829102 62.61865234 C-5.04419887 47.91731456 -22.15036386 39.29050923 -42.90625 36.98046875 C-42.90625 37.64046875 -42.90625 38.30046875 -42.90625 38.98046875 C-41.37677734 38.92052734 -41.37677734 38.92052734 -39.81640625 38.859375 C-23.04821198 39.37866973 -7.24542509 52.19043693 3.79296875 63.76171875 C21.24186522 84.64543736 22.5272907 118.67421632 22.40625 144.66796875 C22.40509186 145.44606903 22.40393372 146.22416931 22.40274048 147.02584839 C22.35430206 163.56365433 21.4238669 180.1791293 16.09375 195.98046875 C-11.3767151 195.85945349 -37.96694276 177.29670471 -56.90625 158.98046875 C-64.89500772 150.81066919 -71.37143154 141.98045537 -76.90625 131.98046875 C-77.44894531 131.0059375 -77.99164063 130.03140625 -78.55078125 129.02734375 C-92.14791191 103.27885328 -93.28444837 73.86205632 -85.00756836 46.25561523 C-78.33375253 25.35030778 -66.09809149 3.37939701 -45.984375 -7.01953125 C-30.89715911 -14.27954491 -13.67939673 -7.8242004 0 0 Z " fill="#94C7EB" transform="translate(190.90625,229.01953125)"/>
<path d="M0 0 C3.22206824 2.69648264 6.26657002 5.4784045 9.125 8.5625 C9.64449219 9.0884375 10.16398438 9.614375 10.69921875 10.15625 C23.25917359 23.47826951 30.94696727 42.98956835 35.125 60.5625 C35.46337891 61.94888672 35.46337891 61.94888672 35.80859375 63.36328125 C41.40838769 90.6671041 34.3757896 119.44193628 19.21875 142.45703125 C14.65655679 148.92919026 9.5619954 154.81534044 4.125 160.5625 C3.37734375 161.37460937 2.6296875 162.18671875 1.859375 163.0234375 C-15.00957969 180.73025418 -41.53707283 197.51719153 -66.54296875 198.7421875 C-67.69732422 198.65324219 -67.69732422 198.65324219 -68.875 198.5625 C-74.53197546 182.59458345 -75.45328697 166.08822778 -75.375 149.3125 C-75.37423462 148.35937927 -75.37346924 147.40625854 -75.37268066 146.42425537 C-75.29122288 118.13892572 -73.19294156 83.27452371 -52.75 61.6875 C-43.15319279 52.77901552 -27.71910741 41.26052999 -14.0625 41.1875 C-12.4846875 41.373125 -12.4846875 41.373125 -10.875 41.5625 C-10.545 41.5625 -10.215 41.5625 -9.875 41.5625 C-9.875 40.9025 -9.875 40.2425 -9.875 39.5625 C-31.83795055 42.57003917 -50.69553155 51.11084653 -64.875 68.5625 C-65.205 68.5625 -65.535 68.5625 -65.875 68.5625 C-65.86452637 67.51497559 -65.85405273 66.46745117 -65.84326172 65.38818359 C-65.80655817 61.43330418 -65.78391997 57.47843919 -65.76513672 53.5234375 C-65.75519214 51.82451836 -65.74163169 50.12561581 -65.72412109 48.42675781 C-65.62853218 38.90160417 -65.81194332 29.82821252 -67.53955078 20.43212891 C-67.88600745 17.46833582 -67.74927017 15.40641864 -66.875 12.5625 C-50.27540313 -4.15716629 -20.43942621 -15.52447297 0 0 Z " fill="#94C7EB" transform="translate(629.875,226.4375)"/>
<path d="M0 0 C3.25393744 2.62674721 6.42485791 5.38114559 9.046875 8.65234375 C9.046875 9.31234375 9.046875 9.97234375 9.046875 10.65234375 C9.706875 10.65234375 10.366875 10.65234375 11.046875 10.65234375 C11.046875 11.31234375 11.046875 11.97234375 11.046875 12.65234375 C21.30435783 13.53290094 21.30435783 13.53290094 30.81787109 10.52392578 C33.39612817 8.15411297 35.46158347 5.44923927 37.58984375 2.6796875 C42.33231444 -3.16357925 48.85603682 -6.4039509 56.046875 -8.34765625 C58.84434397 -8.56050715 61.50395667 -8.68168344 64.296875 -8.66015625 C65.04904297 -8.6552417 65.80121094 -8.65032715 66.57617188 -8.64526367 C78.00442694 -8.40532938 87.93060181 -4.47824692 96.296875 3.40234375 C100.09738916 7.42952874 102.75529136 11.62648417 105.046875 16.65234375 C105.3665625 17.32652344 105.68625 18.00070312 106.015625 18.6953125 C109.70292935 27.79407739 109.35469462 39.07913337 106.08203125 48.2578125 C102.69259939 56.09827186 98.72517587 62.51689615 92.78125 68.6796875 C90.95843095 70.51657423 90.95843095 70.51657423 90.28125 72.70703125 C88.26992482 75.8767779 84.9465158 76.64855634 81.546875 77.83984375 C80.82072998 78.09741455 80.09458496 78.35498535 79.34643555 78.62036133 C69.2342932 82.08034105 63.66441239 82.16478087 53.6875 78 C32.69575197 70.22944949 4.76727969 70.78092529 -15.765625 79.40234375 C-23.37354264 82.52836932 -29.63910677 81.91243116 -37.328125 79.33984375 C-40.72368553 77.75915178 -43.26833107 76.25323787 -45.953125 73.65234375 C-45.953125 72.99234375 -45.953125 72.33234375 -45.953125 71.65234375 C-46.53191406 71.38679688 -47.11070312 71.12125 -47.70703125 70.84765625 C-56.87131302 65.97066456 -61.91643086 58.12396085 -65.265625 48.58984375 C-68.61144911 36.77703619 -68.02890242 24.87323372 -62.953125 13.65234375 C-57.25083346 3.82472182 -49.58030853 -3.21132733 -38.953125 -7.34765625 C-25.31243757 -10.82742345 -11.3732274 -8.15634739 0 0 Z " fill="#94C6EB" transform="translate(367.953125,247.34765625)"/>
<path d="M0 0 C3.32716886 3.23991793 6.35506643 6.55811106 9.25 10.1875 C24.75024541 29.27457906 41.66822444 42.85222755 64 53 C64.61842773 53.28359375 65.23685547 53.5671875 65.87402344 53.859375 C96.99446056 67.88921587 136.45839278 68.4005018 168.41015625 56.796875 C185.94533164 50.10169491 200.6936786 41.15815859 215 29 C215.70898438 28.42636719 216.41796875 27.85273438 217.1484375 27.26171875 C222.90985711 22.49089895 227.39068515 16.86349584 232 11 C233.51983552 9.10336665 235.04060805 7.20748363 236.5625 5.3125 C237.70896699 3.87550532 238.8550516 2.43820494 240 1 C240.33 1.66 240.66 2.32 241 3 C240.33837891 4.68896484 240.33837891 4.68896484 239.2265625 6.7109375 C238.81865479 7.45520996 238.41074707 8.19948242 237.99047852 8.96630859 C237.53987061 9.76117676 237.0892627 10.55604492 236.625 11.375 C235.93651978 12.59630615 235.93651978 12.59630615 235.23413086 13.84228516 C217.57720852 44.60735149 188.32793742 68.47107913 154 78 C142.88709597 80.99893572 131.70314102 81.2759674 120.25 81.3125 C118.9594873 81.31813965 117.66897461 81.3237793 116.33935547 81.32958984 C104.06378738 81.23710376 92.32416857 79.95587668 80.6875 75.9375 C79.8001416 75.63513428 78.9127832 75.33276855 77.99853516 75.02124023 C64.8659243 70.36996037 52.84829977 63.75612767 42 55 C41.46310547 54.57380371 40.92621094 54.14760742 40.37304688 53.70849609 C25.21263862 41.5946975 14.57176179 27.81505516 5 11 C4.52933105 10.18354004 4.05866211 9.36708008 3.57373047 8.52587891 C3.11498535 7.71940918 2.65624023 6.91293945 2.18359375 6.08203125 C1.7652124 5.34831299 1.34683105 4.61459473 0.91577148 3.85864258 C0 2 0 2 0 0 Z " fill="#194BA0" transform="translate(268,400)"/>
<path d="M0 0 C4.82695973 2.83938808 8.05490682 6.63787957 10.1875 11.875 C10.93523413 18.67258301 10.96955358 25.95066432 7.1875 31.875 C3.45151298 35.91780721 -0.76531087 39.42549229 -6.328125 40.24609375 C-13.12031813 40.41104701 -17.69593775 39.5088677 -22.8125 34.875 C-28.46735968 27.62517989 -28.53450761 20.81757996 -27.8125 11.875 C-25.53311978 6.7691883 -21.34661507 3.10463649 -16.8125 -0.125 C-11.19353684 -1.99798772 -5.63847309 -1.66381173 0 0 Z " fill="#194BA0" transform="translate(445.8125,259.125)"/>
<path d="M0 0 C4.33124884 3.05544009 8.19230449 6.68731008 9.64453125 11.90625 C10.54687831 19.79238729 10.69336627 27.41489069 5.64453125 33.90625 C1.10267698 38.33164647 -3.47619478 40.19165037 -9.79296875 40.28125 C-16.32942653 40.14964347 -19.31289366 37.71671428 -24.10546875 33.46875 C-28.73672268 28.19426636 -28.84949702 22.92891783 -28.734375 16.13671875 C-28.00616047 9.92812685 -24.83191633 6.04571818 -20.29296875 1.96875 C-14.65478492 -1.98997482 -6.34896415 -2.94810939 0 0 Z " fill="#194AA0" transform="translate(347.35546875,259.09375)"/>
<path d="M0 0 C11.24077925 7.36302439 17.35619137 16.97723577 22.3125 29.25 C23.89064075 37.85804045 23.77238775 46.68283676 21 55 C20.74347656 55.78761719 20.48695313 56.57523437 20.22265625 57.38671875 C16.13192584 68.85129798 8.99288902 75.36819119 -1 82 C-1.99 81.505 -1.99 81.505 -3 81 C-2.12988281 80.12601563 -2.12988281 80.12601563 -1.2421875 79.234375 C9.91081137 67.52924747 14.57879449 55.8098388 14.30859375 39.8203125 C13.36394024 28.1257412 8.13476224 19.67229334 -0.25 11.75 C-10.90299089 3.09745763 -23.80805493 1.85952274 -37 3 C-44.61219859 4.63470241 -50.16644612 9.0506659 -56 14 C-57.010625 14.804375 -58.02125 15.60875 -59.0625 16.4375 C-59.701875 16.953125 -60.34125 17.46875 -61 18 C-58.67073214 9.71815874 -51.05418099 3.3991018 -44 -1 C-43.01386719 -1.62261719 -43.01386719 -1.62261719 -42.0078125 -2.2578125 C-29.80991554 -8.4652832 -11.52643669 -6.64862898 0 0 Z " fill="#1B4DA1" transform="translate(461,237)"/>
<path d="M0 0 C2.97093042 1.72971956 5.47743003 3.67147388 8 6 C8.63808594 6.58265625 9.27617187 7.1653125 9.93359375 7.765625 C13.17690932 10.86734051 16.11034683 13.86638369 18 18 C17.67 18.66 17.34 19.32 17 20 C16.34257812 19.23816406 16.34257812 19.23816406 15.671875 18.4609375 C7.97754284 10.10977211 -2.21354024 4.64192441 -13.6484375 3.69921875 C-20.98302814 3.676154 -27.34369187 3.75813141 -34 7 C-34.81984375 7.39058594 -35.6396875 7.78117188 -36.484375 8.18359375 C-45.88297465 13.21042053 -51.65220071 20.75597053 -55.30859375 30.67578125 C-59.09075907 43.38983981 -57.73483166 56.81050423 -51.6796875 68.5625 C-48.30686412 74.01799573 -44.01033377 78.04514263 -39 82 C-39.99 82.495 -39.99 82.495 -41 83 C-52.27492303 76.02028575 -59.614031 68.52013887 -64.140625 55.79296875 C-66.91571364 43.54473663 -66.45803422 29.92242726 -60 19 C-59.54238281 18.18402344 -59.08476562 17.36804688 -58.61328125 16.52734375 C-46.34948362 -3.59872413 -21.00364975 -9.58217354 0 0 Z " fill="#1A4CA1" transform="translate(359,236)"/>
<path d="M0 0 C5.49385197 4.65800743 9.62181357 9.70335946 13.20703125 15.9296875 C13.76390625 16.8371875 14.32078125 17.7446875 14.89453125 18.6796875 C17.00932721 23.91632513 18.05295758 29.41305164 19.20703125 34.9296875 C18.54703125 34.9296875 17.88703125 34.9296875 17.20703125 34.9296875 C16.80484375 33.82173828 16.80484375 33.82173828 16.39453125 32.69140625 C10.83157415 18.28993506 2.339159 7.4272175 -11.79296875 0.9296875 C-23.19874617 -3.3590327 -34.81485294 -4.42320326 -46.89794922 -4.38598633 C-49.02624357 -4.38283725 -51.15312728 -4.40633508 -53.28125 -4.43164062 C-71.74967816 -4.51918706 -88.84221215 -0.85899403 -102.60546875 12.40625 C-108.31268061 18.98992654 -112.10007298 26.69259456 -114.79296875 34.9296875 C-115.12296875 34.9296875 -115.45296875 34.9296875 -115.79296875 34.9296875 C-116.78451268 26.40240967 -113.0087888 17.61521732 -108.10546875 10.7421875 C-107.02316088 9.45268719 -105.9168342 8.18313389 -104.79296875 6.9296875 C-104.11878906 6.10597656 -103.44460938 5.28226562 -102.75 4.43359375 C-95.86204454 -3.33122036 -88.54783836 -6.36821593 -78.79296875 -9.0703125 C-77.56964844 -9.40933594 -76.34632813 -9.74835938 -75.0859375 -10.09765625 C-51.78071384 -15.39318875 -19.87394282 -14.73173384 0 0 Z " fill="#1C4FA2" transform="translate(437.79296875,332.0703125)"/>
<path d="M0 0 C6.82323408 2.36724448 12.00282508 7.66363353 15.3125 14 C17.65775184 19.20384207 19.34948373 24.23351842 19 30 C17.8274869 29.04882866 16.66212985 28.08882991 15.5 27.125 C14.52546875 26.32449219 14.52546875 26.32449219 13.53125 25.5078125 C13.0259375 25.01023437 12.520625 24.51265625 12 24 C12 23.34 12 22.68 12 22 C11.46375 21.7525 10.9275 21.505 10.375 21.25 C8 20 8 20 5.125 18 C-0.16836207 14.61224828 -4.70731538 13.41734402 -11 14 C-13.28484306 15.39957197 -13.28484306 15.39957197 -15 17 C-15.66 17 -16.32 17 -17 17 C-16.97114138 10.63667421 -15.8634748 6.97302485 -11.47265625 2.3125 C-8.0823229 -0.70912336 -4.30981721 -0.42855593 0 0 Z " fill="#1A4DA1" transform="translate(363,348)"/>
<path d="M0 0 C4.38773175 2.19386588 7.09334197 4.44520582 9 9 C9.1875 12.8125 9.1875 12.8125 9 16 C8.195625 15.67 7.39125 15.34 6.5625 15 C1.22020372 13.50040806 -3.25643622 12.82665197 -8.484375 15.0625 C-13.99948498 18.21399142 -18.66413424 22.12416113 -23.28515625 26.4609375 C-25 28 -25 28 -26 28 C-25.80099071 19.33404983 -23.89839732 12.97246013 -17.73828125 6.6953125 C-11.74184701 1.26858779 -8.19536855 -0.99337801 0 0 Z " fill="#194BA0" transform="translate(422,348)"/>
<path d="M0 0 C3.4375 0.8125 3.4375 0.8125 5.4375 3.8125 C5.875 6.25 5.875 6.25 5.4375 8.8125 C3.25 11.1875 3.25 11.1875 0.4375 12.8125 C-2.44006134 12.74398663 -3.989777 12.1561338 -6.4375 10.6875 C-7.5625 8.8125 -7.5625 8.8125 -7.4375 5.25 C-6.21869651 0.46184342 -4.88800931 -0.25726365 0 0 Z " fill="#D9E7F6" transform="translate(347.5625,264.1875)"/>
<path d="M0 0 C1.8125 1.0625 1.8125 1.0625 3 3 C3.4375 6.5 3.4375 6.5 3 10 C1.3125 12 1.3125 12 -1 13 C-3.81900839 12.8624874 -5.45769347 12.35530428 -7.8125 10.8125 C-9.60140853 8.08206067 -9.46413104 6.18261281 -9 3 C-6.30254095 0.00282328 -3.95012118 -0.60771095 0 0 Z " fill="#DEECF8" transform="translate(448,264)"/>
<path d="M0 0 C0 0.66 0 1.32 0 2 C0.99 2.33 1.98 2.66 3 3 C2.01 3.495 2.01 3.495 1 4 C0.34 3.67 -0.32 3.34 -1 3 C-7.32548137 2.55610657 -12.11688339 3.71212132 -18 6 C-17.67 4.68 -17.34 3.36 -17 2 C-11.16200408 0.30167391 -6.06892629 -0.25287193 0 0 Z " fill="#3160AD" transform="translate(620,266)"/>
<path d="M0 0 C6.0018137 -0.21824777 11.19233704 0.4943096 17 2 C16.01 2.495 16.01 2.495 15 3 C14.67 3.66 14.34 4.32 14 5 C9.38 4.01 4.76 3.02 0 2 C0 1.34 0 0.68 0 0 Z " fill="#3361AD" transform="translate(148,266)"/>
<path d="M0 0 C0.33 0.66 0.66 1.32 1 2 C-0.1875 5.0625 -0.1875 5.0625 -2 8 C-4.1875 8.875 -4.1875 8.875 -6 9 C-4.47291037 5.56404834 -2.40072955 2.88087546 0 0 Z " fill="#2559A8" transform="translate(508,401)"/>
</svg>
