<?xml version="1.0" encoding="UTF-8"?>
<svg version="1.1" xmlns="http://www.w3.org/2000/svg" width="2340" height="991">
<path d="M0 0 C1.41732422 1.10021484 1.41732422 1.10021484 2.86328125 2.22265625 C8.56544294 6.74214736 13.92490421 11.61018532 19.25 16.5625 C19.91193359 17.17585205 20.57386719 17.7892041 21.25585938 18.42114258 C25.80972894 22.70723822 29.96717235 27.22311037 34 32 C34.52964355 32.62350342 35.05928711 33.24700684 35.60498047 33.8894043 C64.18581338 67.8141511 82.64244075 107.45436967 91 151 C91.16516113 151.83354004 91.33032227 152.66708008 91.50048828 153.52587891 C96.63145363 180.62395545 96.41761295 211.97521377 91 239 C90.70198486 240.52753906 90.70198486 240.52753906 90.39794922 242.0859375 C82.62227998 280.94681028 66.74980811 316.95586362 42 348 C41.26652344 348.94488281 40.53304688 349.88976562 39.77734375 350.86328125 C35.25785264 356.56544294 30.38981468 361.92490421 25.4375 367.25 C24.51747192 368.24290039 24.51747192 368.24290039 23.57885742 369.25585938 C19.29276178 373.80972894 14.77688963 377.96717235 10 382 C9.37649658 382.52964355 8.75299316 383.05928711 8.1105957 383.60498047 C-27.27384789 413.41557496 -69.24485556 432.74626428 -115 440 C-116.17022705 440.18618896 -117.3404541 440.37237793 -118.54614258 440.56420898 C-129.88599396 442.18049175 -141.12109097 442.35807408 -152.5625 442.3125 C-153.53555084 442.31034485 -154.50860168 442.3081897 -155.51113892 442.30596924 C-169.85439214 442.25498489 -183.90862432 441.92408424 -198 439 C-199.49055908 438.69400879 -199.49055908 438.69400879 -201.01123047 438.38183594 C-241.77023113 429.76203189 -278.93806149 412.71828209 -311 386 C-311.53625 385.55398438 -312.0725 385.10796875 -312.625 384.6484375 C-362.11011962 343.33719925 -392.85352959 284.48625445 -399.78858948 220.44044495 C-400.14738905 216.29859527 -400.20225273 212.16327731 -400.23828125 208.0078125 C-400.2480751 207.07235596 -400.25786896 206.13689941 -400.26795959 205.1730957 C-400.43748288 184.77882203 -400.33938108 165.02100649 -396 145 C-395.79101074 143.99501465 -395.58202148 142.9900293 -395.36669922 141.95458984 C-386.35614768 99.54762704 -365.90064515 59.46021118 -336 28 C-334.76332207 26.58988553 -333.53355527 25.173664 -332.3125 23.75 C-326.64752914 17.27011453 -320.57991831 11.69826327 -313.86328125 6.30859375 C-312.0491531 4.84590652 -310.25231811 3.3612826 -308.48046875 1.84765625 C-277.25558249 -24.6767095 -237.99719961 -41.34417369 -198 -49 C-197.17564453 -49.16516113 -196.35128906 -49.33032227 -195.50195312 -49.50048828 C-127.74433096 -62.53183686 -53.55165796 -42.69383572 0 0 Z " fill="#18499E" transform="translate(525,217)"/>
<path d="M0 0 C167.31 0 334.62 0 507 0 C498.95788083 28.72185417 498.95788083 28.72185417 495.390625 40.90625 C494.98124514 42.30842683 494.57198848 43.71063963 494.1628418 45.11288452 C493.08273078 48.81340682 492.00094981 52.51343868 490.91871643 56.21334076 C489.77928625 60.109594 488.64118867 64.0062365 487.50292969 67.90283203 C486.09148442 72.73425791 484.67982283 77.56562029 483.26739502 82.39675903 C480.21197368 92.84805458 477.16240154 103.30104006 474.11667633 113.7551651 C472.79455035 118.2923885 471.47130801 122.82928642 470.14796066 127.36615372 C469.0966418 130.9706477 468.04594841 134.57532145 466.9967041 138.18041992 C465.83843146 142.15995319 464.67716428 146.13860647 463.515625 150.1171875 C463.17184814 151.30009369 462.82807129 152.48299988 462.47387695 153.70175171 C462.00389282 155.3090062 462.00389282 155.3090062 461.52441406 156.94873047 C461.11645599 158.34839554 461.11645599 158.34839554 460.70025635 159.77633667 C460 162 460 162 459 164 C290.04 164 121.08 164 -53 164 C-50.75011759 153.87552916 -50.75011759 153.87552916 -49.25097656 149.33642578 C-48.74756996 147.80129585 -48.74756996 147.80129585 -48.23399353 146.2351532 C-47.69277611 144.60668205 -47.69277611 144.60668205 -47.140625 142.9453125 C-46.7598732 141.78784012 -46.3791214 140.63036774 -45.98683167 139.43782043 C-44.95856261 136.31407127 -43.9265983 133.19157309 -42.89307022 130.069561 C-41.80778154 126.78778869 -40.72759586 123.50433847 -39.6472168 120.22094727 C-38.3370094 116.23978812 -37.02657802 112.25870463 -35.7141571 108.27827454 C-32.3314457 98.01811449 -28.97519271 87.74956321 -25.63696289 77.47485352 C-24.26069821 73.23928383 -22.8820866 69.0044779 -21.50390625 64.76953125 C-20.94155269 63.0411837 -20.37921582 61.31283071 -19.81689453 59.58447266 C-19.52598938 58.69036682 -19.23508423 57.79626099 -18.93536377 56.87506104 C-18.27917585 54.85811278 -17.6230536 52.84114316 -16.96697998 50.82415771 C-14.75773056 44.03255875 -12.54671228 37.2415396 -10.33358765 30.45120239 C-9.61717313 28.25208202 -8.90136277 26.05276474 -8.18618774 23.85324097 C-7.19338315 20.80009084 -6.1984959 17.74762677 -5.203125 14.6953125 C-4.90796494 13.78597458 -4.61280487 12.87663666 -4.30870056 11.93974304 C-4.0331282 11.0961171 -3.75755585 10.25249115 -3.47363281 9.38330078 C-3.23606262 8.65362091 -2.99849243 7.92394104 -2.75372314 7.17214966 C-1.91421876 4.75278763 -0.95108506 2.37771264 0 0 Z " fill="#F7A01C" transform="translate(1706,695)"/>
<path d="M0 0 C1.41732422 1.10021484 1.41732422 1.10021484 2.86328125 2.22265625 C8.56544294 6.74214736 13.92490421 11.61018532 19.25 16.5625 C19.91193359 17.17585205 20.57386719 17.7892041 21.25585938 18.42114258 C25.80972894 22.70723822 29.96717235 27.22311037 34 32 C34.52964355 32.62350342 35.05928711 33.24700684 35.60498047 33.8894043 C64.18581338 67.8141511 82.64244075 107.45436967 91 151 C91.16516113 151.83354004 91.33032227 152.66708008 91.50048828 153.52587891 C96.63145363 180.62395545 96.41761295 211.97521377 91 239 C90.70198486 240.52753906 90.70198486 240.52753906 90.39794922 242.0859375 C82.62227998 280.94681028 66.74980811 316.95586362 42 348 C41.26652344 348.94488281 40.53304688 349.88976562 39.77734375 350.86328125 C35.25785264 356.56544294 30.38981468 361.92490421 25.4375 367.25 C24.51747192 368.24290039 24.51747192 368.24290039 23.57885742 369.25585938 C17.83532533 375.35821877 11.65431656 380.84278888 5 385.9375 C4.236875 386.52402344 3.47375 387.11054687 2.6875 387.71484375 C2.130625 388.13894531 1.57375 388.56304688 1 389 C-1.90995652 385.45857641 -4.51528779 381.80891546 -7.0625 378 C-10.35431658 373.17005536 -13.84878723 368.58654728 -17.625 364.125 C-18.05562744 363.61453125 -18.48625488 363.1040625 -18.92993164 362.578125 C-24.94112899 355.58788685 -31.41453184 349.68624997 -38.8125 344.1875 C-40.31994492 343.05723487 -41.82649816 341.92577923 -43.33203125 340.79296875 C-43.98921143 340.3033667 -44.6463916 339.81376465 -45.32348633 339.30932617 C-47 338 -47 338 -49 336 C-48.40118193 331.06657044 -45.15465435 326.90122765 -42.625 322.75 C-42.13 321.90953125 -41.635 321.0690625 -41.125 320.203125 C-40.64289063 319.4090625 -40.16078125 318.615 -39.6640625 317.796875 C-39.22529785 317.06823242 -38.7865332 316.33958984 -38.33447266 315.58886719 C-37.89409668 315.06454102 -37.4537207 314.54021484 -37 314 C-36.01 314 -35.02 314 -34 314 C-33.34 317.63 -32.68 321.26 -32 325 C-23.97719307 310.43414831 -17.59375652 296.02410363 -13 280 C-12.34 280 -11.68 280 -11 280 C-9.19336627 283.9745942 -8.58016925 287.69017128 -8 292 C-7.67 292.33 -7.34 292.66 -7 293 C-6.34996375 290.79290017 -5.70515255 288.58426108 -5.0625 286.375 C-4.70285156 285.14523437 -4.34320312 283.91546875 -3.97265625 282.6484375 C-0.08053972 268.04909277 -1.7834086 253.31515064 -6 239 C-4.87464844 238.6596875 -3.74929688 238.319375 -2.58984375 237.96875 C12.22891155 233.34844132 25.34521117 227.52755537 37 217 C37.75667969 216.33613281 38.51335937 215.67226563 39.29296875 214.98828125 C53.70024033 201.57290445 64.18929676 180.37326048 65.10791016 160.6875 C65.74100161 134.25207158 60.74690618 111.83754565 42.06103516 92.10546875 C40.71926101 90.72530534 39.36009926 89.36210826 38 88 C37.34386719 87.33226562 36.68773437 86.66453125 36.01171875 85.9765625 C24.45517136 75.03867397 5.87160017 66.25410312 -10 65 C-11.38087495 65.06372745 -12.76113472 65.14168042 -14.140625 65.23046875 C-23.0189614 65.62893683 -23.0189614 65.62893683 -27 64 C-30.92568438 60.28556902 -32.7987516 54.97266743 -34.9609375 50.12158203 C-36.56990209 46.83636063 -38.66396959 44.03921647 -40.9375 41.1875 C-41.35660645 40.6608374 -41.77571289 40.1341748 -42.20751953 39.59155273 C-43.45630698 38.04846659 -44.72801425 36.52402008 -46 35 C-46.79148437 34.04351562 -47.58296875 33.08703125 -48.3984375 32.1015625 C-62.40920747 15.91436224 -81.08091616 5.26090541 -101 -2 C-101.72058594 -2.30421875 -102.44117188 -2.6084375 -103.18359375 -2.921875 C-114.602509 -7.73500917 -127.77667435 -8.63471396 -140 -10 C-137.04272325 -13.29525123 -134.30729258 -15.01116032 -130.25 -16.75 C-129.26515625 -17.17796875 -128.2803125 -17.6059375 -127.265625 -18.046875 C-126.51796875 -18.36140625 -125.7703125 -18.6759375 -125 -19 C-133.87473927 -19.67688689 -141.55686494 -17.88686007 -150.01708984 -15.54003906 C-153.33090578 -14.63753218 -156.66574668 -13.823364 -160 -13 C-153.30860844 -20.36053072 -144.74495563 -25.41629137 -136 -30 C-152.17287015 -28.22343472 -168.76779922 -21.99029609 -180.6875 -10.625 C-183.9549599 -7.65312938 -186.94750549 -7.14079136 -191.23828125 -6.4609375 C-220.03843984 -1.65412178 -248.2332066 18.53106743 -265.32177734 41.79980469 C-266.67802582 43.72521511 -268.00258843 45.66779508 -269.3125 47.625 C-269.95844116 48.5838208 -269.95844116 48.5838208 -270.61743164 49.56201172 C-272.93178143 53.08608357 -274.57461996 56.415726 -276.0625 60.375 C-277.1640625 62.46875 -277.1640625 62.46875 -279 64 C-283.2166218 64.77166935 -287.23652146 64.893148 -291.51171875 64.9140625 C-312.41246077 65.02970823 -331.38278604 75.8241584 -346 90 C-346.61230469 90.53882813 -347.22460938 91.07765625 -347.85546875 91.6328125 C-360.68232814 103.31494073 -369.71295654 122.92448373 -371 140 C-372.20987295 165.96905871 -368.40688437 188.82475196 -350.75 209.0625 C-336.73395131 223.97671032 -320.82187025 235.49926969 -300 238 C-300.27714844 238.96292969 -300.55429687 239.92585938 -300.83984375 240.91796875 C-304.68506773 255.45573759 -304.82162977 270.03227763 -305 285 C-304.34 285 -303.68 285 -303 285 C-302.88785156 284.28457031 -302.77570313 283.56914062 -302.66015625 282.83203125 C-301.95543995 279.80884002 -300.86712202 277.43677312 -299.4375 274.6875 C-298.75494141 273.36298828 -298.75494141 273.36298828 -298.05859375 272.01171875 C-297.53458984 271.01591797 -297.53458984 271.01591797 -297 270 C-296.34 270 -295.68 270 -295 270 C-294.91363281 270.92296875 -294.82726562 271.8459375 -294.73828125 272.796875 C-292.95853387 289.32076812 -289.23256501 304.98807813 -282 320 C-281.96261719 319.32453125 -281.92523438 318.6490625 -281.88671875 317.953125 C-281.82097656 317.06109375 -281.75523437 316.1690625 -281.6875 315.25 C-281.62949219 314.36828125 -281.57148438 313.4865625 -281.51171875 312.578125 C-280.9358819 309.67696226 -279.92403852 308.20774393 -278 306 C-277.38253906 306.95519531 -276.76507813 307.91039062 -276.12890625 308.89453125 C-271.32863674 316.24369238 -266.45497613 323.15538156 -260.6171875 329.73046875 C-259 332 -259 332 -259 336 C-261.01550919 337.97924816 -262.9838857 339.69226508 -265.1875 341.4375 C-281.61437469 355.03568483 -295.08626858 370.62524493 -306 389 C-309.50827915 387.47920927 -311.95271646 385.4004327 -314.75 382.8125 C-317.86206663 379.95634487 -320.98433934 377.12859425 -324.1875 374.375 C-368.28870019 335.85286731 -395.00152693 275.70052598 -400 218 C-400.15905742 214.66921435 -400.20937298 211.34204067 -400.23828125 208.0078125 C-400.2480751 207.07235596 -400.25786896 206.13689941 -400.26795959 205.1730957 C-400.43748288 184.77882203 -400.33938108 165.02100649 -396 145 C-395.79101074 143.99501465 -395.58202148 142.9900293 -395.36669922 141.95458984 C-386.35614768 99.54762704 -365.90064515 59.46021118 -336 28 C-334.76332207 26.58988553 -333.53355527 25.173664 -332.3125 23.75 C-326.64752914 17.27011453 -320.57991831 11.69826327 -313.86328125 6.30859375 C-312.0491531 4.84590652 -310.25231811 3.3612826 -308.48046875 1.84765625 C-277.25558249 -24.6767095 -237.99719961 -41.34417369 -198 -49 C-197.17564453 -49.16516113 -196.35128906 -49.33032227 -195.50195312 -49.50048828 C-127.74433096 -62.53183686 -53.55165796 -42.69383572 0 0 Z " fill="#F69F1C" transform="translate(525,217)"/>
<path d="M0 0 C19.47 0 38.94 0 59 0 C59.33 95.04 59.66 190.08 60 288 C62.97 284.7 65.94 281.4 69 278 C92.07432819 259.19869555 121.29951515 251.73435667 150.67578125 254.22705078 C162.5467993 255.44464616 173.8408738 257.75964482 185 262 C185.66870117 262.25265625 186.33740234 262.5053125 187.02636719 262.765625 C212.2203933 272.51352699 232.59739992 291.42281222 243.91674805 316.02661133 C258.81095627 349.87856074 260.97190395 391.8544503 247.98388672 426.75805664 C243.04809707 439.31427202 236.92096434 450.8272798 228 461 C227.40960937 461.73347656 226.81921875 462.46695312 226.2109375 463.22265625 C211.74816426 480.67029972 190.55896598 491.20692763 169 497 C167.76378906 497.33902344 166.52757812 497.67804688 165.25390625 498.02734375 C155.37982346 500.22046142 145.44724217 500.31013283 135.375 500.375 C134.32987747 500.38705475 134.32987747 500.38705475 133.26364136 500.39935303 C109.17985393 500.60980937 86.96788617 493.53153932 69 477 C61.77980132 469.55960265 61.77980132 469.55960265 60 466 C58.25313434 475.64492847 57.14865281 485.23645115 56 495 C37.52 495 19.04 495 0 495 C0 331.65 0 168.3 0 0 Z M79.546875 331.0703125 C66.95214685 346.78191782 61.47775697 364.91890354 63 385 C65.44720834 403.72398941 73.19488524 419.89881339 88 432 C104.95054438 443.28697387 123.18035833 448.44310788 143.4375 444.8125 C160.27655506 441.14069793 175.65884451 432.38518632 185.265625 417.66796875 C196.46356117 399.40139895 199.0243734 379.80783975 195 359 C190.50992564 341.42826667 180.65022024 327.42516204 165.26586914 317.88598633 C137.8639952 301.86510628 101.06145022 307.9581203 79.546875 331.0703125 Z " fill="#2975BB" transform="translate(655,163)"/>
<path d="M0 0 C19.47 0 38.94 0 59 0 C59.33 94.71 59.66 189.42 60 287 C61.98 284.69 63.96 282.38 66 280 C87.30783852 260.75327392 116.06439944 252.54762781 144.39111328 253.83154297 C174.16742352 255.7542132 204.60888396 265.75320378 225.16796875 288.38671875 C239.77331455 305.60644659 248.90341461 324.81481347 253 347 C253.33644531 348.65322266 253.33644531 348.65322266 253.6796875 350.33984375 C257.01225162 369.9015386 256.60181085 391.67659698 252 411 C251.81195801 411.80018555 251.62391602 412.60037109 251.43017578 413.42480469 C244.33812398 442.36850058 227.48486725 467.19859289 202 483 C174.28760131 499.31398278 137.3805808 505.99126864 105.86108398 497.90478516 C103.8828256 497.32603035 101.94359629 496.68586005 100 496 C99.31212402 495.75862305 98.62424805 495.51724609 97.91552734 495.26855469 C83.84975191 490.12372309 71.62221975 481.57733213 62 470 C60.7265625 467.203125 60.7265625 467.203125 60 465 C59.34 465 58.68 465 58 465 C58 467.97 58 470.94 58 474 C56.515 484.395 56.515 484.395 55 495 C36.85 495 18.7 495 0 495 C0 331.65 0 168.3 0 0 Z M98 317 C97.18402344 317.40734375 96.36804687 317.8146875 95.52734375 318.234375 C79.69498436 326.7652818 69.9089608 341.50959312 64.69140625 358.37890625 C59.86130776 376.68961862 62.42415554 396.61795658 71.3046875 413.21875 C81.09733975 429.28411499 95.74069269 439.73818178 113.8828125 444.32421875 C117.65000413 445.14091568 121.14846514 445.74323101 125 446 C125.70640625 446.0515625 126.4128125 446.103125 127.140625 446.15625 C144.67854912 446.85312116 161.51287497 440.62490717 174.76171875 429.1796875 C188.50600163 415.7952026 195.79450148 398.66124209 196.47290039 379.5612793 C196.67377342 360.57606333 191.19464321 343.08399871 178.57421875 328.53515625 C165.50587294 315.66511614 148.18003005 309.32894056 130 308.625 C118.69811892 309.06335289 107.93795291 311.60466831 98 317 Z " fill="#2975BB" transform="translate(1703,163)"/>
<path d="M0 0 C1.07355804 0.92745632 2.13646862 1.86740372 3.1875 2.8203125 C5.67919082 5.20761057 5.67919082 5.20761057 8.06640625 5.01171875 C10.474261 3.75185131 12.69038003 2.34324488 14.9375 0.8125 C29.244698 -8.4957975 43.02834127 -12.76906762 60 -11 C72.22796087 -8.08082491 82.70224926 -1.23465043 90 9 C96.06314565 19.52695761 99.34882268 28.74113404 99.25 40.9375 C99.25773438 41.88818359 99.26546875 42.83886719 99.2734375 43.81835938 C99.22703496 60.65088141 91.31922383 77.65175582 80 90 C81.57224914 93.53342307 83.72627725 96.29111229 86.125 99.3125 C94.24050449 109.89485367 99.59800776 121.09402942 103 134 C103.5878125 135.8871875 103.5878125 135.8871875 104.1875 137.8125 C110.2028013 161.4109897 104.60061046 186.52297034 93.0859375 207.484375 C91.18173978 210.44646035 89.16570248 213.22385714 87 216 C86.60474121 216.52110352 86.20948242 217.04220703 85.80224609 217.57910156 C71.05773888 236.86873605 49.36583573 250.29319404 25.25 254.3125 C-2.54804864 257.58469182 -29.02156041 251.94686498 -51.3125 234.6875 C-68.91349929 220.52411953 -80.58625041 201.85458359 -86 180 C-86.34224609 178.67742187 -86.34224609 178.67742187 -86.69140625 177.328125 C-91.94963436 153.64771311 -86.46517875 127.67386143 -74.09765625 107.1328125 C-71.48784446 103.23510475 -68.64817227 99.62001752 -65.56640625 96.0859375 C-63.95165734 93.93562349 -63.13006477 92.68800522 -63 90 C-64.14854121 88.24536109 -64.14854121 88.24536109 -65.9375 86.625 C-79.80601567 71.70458095 -84.58062194 52.75400685 -84.2734375 32.890625 C-84.04651699 26.9727179 -82.75615645 22.2432207 -80 17 C-79.50242187 15.99582031 -79.00484375 14.99164063 -78.4921875 13.95703125 C-71.70638995 1.25338699 -61.52491042 -5.95576166 -48.07421875 -10.67578125 C-30.75982839 -13.38217372 -14.61841186 -9.23802416 0 0 Z " fill="#71B2E1" transform="translate(363,298)"/>
<path d="M0 0 C24.253595 22.70802277 37.72173147 53.63739733 38.84765625 86.8203125 C39.62081113 119.80825409 31.04707724 152.55043308 8.015625 177.0703125 C7.24734375 177.87210938 6.4790625 178.67390625 5.6875 179.5 C4.56601563 180.73363281 4.56601563 180.73363281 3.421875 181.9921875 C-11.85390517 198.22902669 -32.75107428 207.85250013 -54.3125 212.5 C-55.17319092 212.68618896 -56.03388184 212.87237793 -56.9206543 213.06420898 C-65.01794226 214.6184294 -73.02406507 214.83964055 -81.23754883 214.81567383 C-83.47983175 214.81252829 -85.72077089 214.83601427 -87.96289062 214.86132812 C-102.00130885 214.92438024 -115.55359487 212.95962193 -128.875 208.375 C-129.75285156 208.0756958 -130.63070313 207.7763916 -131.53515625 207.46801758 C-158.92082799 197.72331589 -180.99891008 177.46818708 -193.61669922 151.38769531 C-206.82095242 123.24125121 -210.61378605 90.91244349 -203.3125 60.5 C-203.14621094 59.79230469 -202.97992187 59.08460938 -202.80859375 58.35546875 C-195.67569233 29.03131848 -176.98881027 2.47192183 -151.3125 -13.5 C-138.65824786 -20.72083104 -125.58291078 -25.65899497 -111.3125 -28.5 C-110.09949219 -28.74363281 -108.88648438 -28.98726563 -107.63671875 -29.23828125 C-68.89964215 -35.57237498 -29.59316727 -25.81434745 0 0 Z M-128.3125 41.5 C-128.93769531 42.09167969 -129.56289062 42.68335938 -130.20703125 43.29296875 C-142.58202097 55.94730361 -147.60967653 74.88080466 -147.75 92.125 C-147.4674715 110.68955487 -142.37749922 128.87016058 -129.3125 142.5 C-128.64734375 143.20511719 -127.9821875 143.91023438 -127.296875 144.63671875 C-114.88387597 156.70491225 -98.78954379 161.02165829 -81.88842773 160.92211914 C-64.54973361 160.42392774 -50.39548834 153.87314586 -38.3125 141.5 C-24.12738923 126.45518555 -20.42431176 106.82949278 -20.97265625 86.83984375 C-21.83348362 69.48544135 -29.97938918 51.75328486 -42.3125 39.5 C-67.87134987 17.68878207 -104.21225769 17.14739913 -128.3125 41.5 Z " fill="#2975BB" transform="translate(1644.3125,448.5)"/>
<path d="M0 0 C23.91196335 20.85858957 38.59795703 49.85175119 41.09765625 81.59472656 C43.17581271 115.77410287 35.83169509 148.58527172 14.2265625 175.71484375 C13.55882813 176.55402344 12.89109375 177.39320313 12.203125 178.2578125 C-6.47342178 200.40286083 -35.36048659 213.48467606 -63.7734375 216.71484375 C-68.75274731 216.97219858 -73.71333027 217.04506413 -78.69848633 217.03051758 C-80.94076925 217.02737204 -83.18170839 217.05085802 -85.42382812 217.07617188 C-99.46320144 217.13922828 -113.01318384 215.17274161 -126.3359375 210.58984375 C-127.21088867 210.29271484 -128.08583984 209.99558594 -128.98730469 209.68945312 C-141.05081303 205.40899516 -152.09507531 199.11251529 -161.7734375 190.71484375 C-162.56878906 190.05097656 -163.36414062 189.38710938 -164.18359375 188.703125 C-184.54757332 171.17184738 -196.43442972 147.76598221 -201.7734375 121.71484375 C-201.99902344 120.65910156 -202.22460938 119.60335937 -202.45703125 118.515625 C-208.29312891 85.79322915 -201.85034484 49.64908102 -183.1328125 22.0390625 C-179.62656301 17.02454618 -175.82418068 12.29934912 -171.7734375 7.71484375 C-171.16242188 7.02003906 -170.55140625 6.32523437 -169.921875 5.609375 C-126.65953435 -40.50643918 -46.8174741 -38.57496106 0 0 Z M-128.1171875 45.45703125 C-141.87451143 61.76675267 -146.23519889 82.81877624 -144.7734375 103.71484375 C-142.70261486 121.71855311 -135.32473622 137.58902318 -121.7734375 149.71484375 C-106.79225072 161.24366207 -90.23217867 164.14091919 -71.7734375 162.71484375 C-55.97740448 160.61462879 -42.88591534 152.84666194 -32.7734375 140.71484375 C-19.78427032 123.46256528 -16.68107051 102.41656474 -19.04150391 81.31884766 C-21.77030545 64.3477863 -31.51717594 47.69695637 -45.2109375 37.33984375 C-71.41410802 19.54352377 -106.34853445 21.3355142 -128.1171875 45.45703125 Z " fill="#2975BB" transform="translate(2173.7734375,446.28515625)"/>
<path d="M0 0 C0.99773437 0.77730469 0.99773437 0.77730469 2.015625 1.5703125 C24.00699631 19.36008035 36.61783282 49.47665887 40 77 C40.23977043 82.28875437 40.24569557 87.58135694 40.25 92.875 C40.25067474 93.61676483 40.25134949 94.35852966 40.25204468 95.12277222 C40.236242 106.04006115 39.83673644 116.39655371 37 127 C36.83371094 127.64565918 36.66742187 128.29131836 36.49609375 128.95654297 C30.76623116 150.77776968 19.77600448 168.96917019 4 185 C3.31808594 185.70640625 2.63617187 186.4128125 1.93359375 187.140625 C-20.29138204 208.53923183 -52.09943565 216.45129222 -82.0625 216.375 C-82.83146606 216.37478851 -83.60043213 216.37457703 -84.3927002 216.37435913 C-96.65908728 216.34075477 -108.16362025 215.43132871 -120 212 C-120.65726074 211.82339844 -121.31452148 211.64679688 -121.99169922 211.46484375 C-147.2799697 204.59752363 -171.35018383 187.51201026 -185 165 C-185.64195312 163.99066406 -186.28390625 162.98132813 -186.9453125 161.94140625 C-205.11414666 132.06300026 -208.99631674 94.74680222 -201.2890625 60.95703125 C-194.17124991 32.33349805 -177.31152725 6.28440736 -152.40625 -9.9765625 C-104.67751934 -38.32918003 -43.03844941 -35.96165739 0 0 Z M-129 45 C-142.16364893 61.63598971 -147.47722314 81.8905864 -145.375 102.875 C-143.12408068 122.06545233 -135.07960535 138.73135951 -120 151 C-105.1286846 161.21505527 -87.46694516 164.09611531 -69.78417969 161.69970703 C-53.91766411 158.72141561 -40.53415345 150.27615618 -31.28393555 137.01318359 C-19.95897292 119.78359015 -16.26822937 98.9253363 -20.1875 78.75 C-24.67540279 60.29507265 -34.38767245 44.63545754 -50.10546875 33.75390625 C-54.85706169 30.8747359 -59.75335948 28.79988918 -65 27 C-65.70125 26.75378906 -66.4025 26.50757813 -67.125 26.25390625 C-89.42279004 19.93910243 -113.73662482 28.26899259 -129 45 Z " fill="#2975BB" transform="translate(1127,447)"/>
<path d="M0 0 C23.22346766 18.96299841 34.41398835 47.5013688 37.69432068 76.68807983 C38.32051396 83.09830156 38.29972971 89.48304745 38.28100586 95.91870117 C38.28072317 97.26006061 38.28088331 98.6014202 38.28144836 99.94277954 C38.28173316 103.55365629 38.27588816 107.16449926 38.26887441 110.77536821 C38.26258762 114.56031653 38.26203288 118.34526577 38.260849 122.13021851 C38.2577513 129.28391827 38.24955911 136.4376026 38.23949951 143.5912956 C38.2261902 153.26772661 38.22082584 162.94416189 38.21499729 172.62059975 C38.20561805 187.8467688 38.18568875 203.07290529 38.16748047 218.29907227 C18.69748047 218.29907227 -0.77251953 218.29907227 -20.83251953 218.29907227 C-20.86990234 209.02813477 -20.90728516 199.75719727 -20.94580078 190.20532227 C-20.97610089 184.30817229 -21.00714274 178.41104142 -21.04150391 172.51391602 C-21.09582542 163.16774288 -21.14724482 153.82162268 -21.17895508 144.4753418 C-21.20207168 137.66607857 -21.23561926 130.85695637 -21.28122109 124.04780531 C-21.30497109 120.44898932 -21.32381818 116.85031138 -21.33013344 113.25141907 C-21.14314404 79.40626219 -21.14314404 79.40626219 -36.83251953 50.29907227 C-37.615625 49.3593457 -37.615625 49.3593457 -38.41455078 48.40063477 C-46.22143844 39.70098866 -58.43952088 35.03116402 -69.9375 34.13500977 C-86.48801807 33.27913294 -101.28433091 36.44615623 -114.14501953 47.61157227 C-128.39260171 61.31204729 -135.18792118 78.38878633 -135.9386158 98.08238411 C-135.99439233 101.2590503 -136.02148284 104.4347014 -136.0378418 107.61181641 C-136.04774139 108.81281982 -136.05764099 110.01382324 -136.06784058 111.2512207 C-136.09386056 114.51710027 -136.11579071 117.78297542 -136.13584256 121.04889607 C-136.15784769 124.47219301 -136.18516467 127.89544764 -136.2118988 131.31871033 C-136.26163074 137.78888457 -136.30664113 144.25908255 -136.34992117 150.72930282 C-136.40432853 158.82485662 -136.46509899 166.92036111 -136.52587891 175.01586914 C-136.6341721 189.44356548 -136.73290077 203.87130764 -136.83251953 218.29907227 C-155.97251953 218.29907227 -175.11251953 218.29907227 -194.83251953 218.29907227 C-194.83251953 140.41907227 -194.83251953 62.53907227 -194.83251953 -17.70092773 C-177.34251953 -17.70092773 -159.85251953 -17.70092773 -141.83251953 -17.70092773 C-140.51251953 -7.80092773 -139.19251953 2.09907227 -137.83251953 12.29907227 C-134.53251953 9.32907227 -131.23251953 6.35907227 -127.83251953 3.29907227 C-90.0835747 -25.93450133 -38.67025232 -30.47352971 0 0 Z " fill="#2975BB" transform="translate(1380.83251953125,439.700927734375)"/>
<path d="M0 0 C3.828273 2.50984723 7.54301704 5.15648579 11.22167969 7.87988281 C11.12318726 8.81537964 11.12318726 8.81537964 11.02270508 9.76977539 C10.23991286 17.69617558 9.91086303 25.60841276 9.65917969 33.56738281 C9.5944043 35.49614258 9.5944043 35.49614258 9.52832031 37.46386719 C9.42331171 40.60245775 9.32115563 43.74111285 9.22167969 46.87988281 C8.54528442 46.29219116 8.54528442 46.29219116 7.85522461 45.69262695 C-1.22485049 37.84828034 -13.13056264 27.87988281 -25.77832031 27.87988281 C-24.9675 28.14800781 -24.15667969 28.41613281 -23.32128906 28.69238281 C-9.90074631 33.44191133 1.16275826 40.94076369 7.97167969 53.69238281 C12.07113636 62.6566241 13.7849534 72.0167253 14.90917969 81.75488281 C15.03510498 82.83624512 15.16103027 83.91760742 15.29077148 85.03173828 C17.25681214 103.20130829 17.90079097 122.57491267 11.22167969 139.87988281 C-6.08323608 139.11417857 -20.89382449 131.06185961 -33.77832031 119.87988281 C-34.59945312 119.21472656 -35.42058594 118.54957031 -36.26660156 117.86425781 C-46.79201466 109.02487512 -54.4338761 97.48943089 -59.77832031 84.87988281 C-60.39707031 83.49736328 -60.39707031 83.49736328 -61.02832031 82.08691406 C-68.03396255 63.67277804 -64.30417701 40.58006841 -56.77832031 22.87988281 C-51.42440329 11.73735253 -43.4828374 -1.09241123 -31.37988281 -5.56152344 C-19.93144359 -8.0196718 -9.8336484 -6.19395646 0 0 Z " fill="#94C6EB" transform="translate(229.7783203125,309.1201171875)"/>
<path d="M0 0 C14.4322733 8.55422822 23.17695028 25.44715566 27.40209961 41.21069336 C32.50866289 62.44961888 30.28277608 82.6227225 19.1953125 101.546875 C16.26966261 105.942349 12.97607752 109.97833579 9.5625 114 C9.07007813 114.62648438 8.57765625 115.25296875 8.0703125 115.8984375 C-2.09276318 128.58792748 -17.26324254 136.91446188 -32.4375 142 C-33.50677734 142.36931641 -33.50677734 142.36931641 -34.59765625 142.74609375 C-38.26346365 143.91431809 -41.60450469 144.44569713 -45.4375 144 C-56.38758549 127.57487176 -51.67688504 94.76572489 -48.20825195 76.6003418 C-44.94922357 61.19339302 -39.17998833 49.6515874 -26.4375 40 C-20.71500576 36.36207117 -15.07067498 33.47403888 -8.4375 32 C-15.02698459 32.62018679 -20.414549 34.72940588 -26.1875 37.8125 C-26.81277588 38.14378906 -27.43805176 38.47507812 -28.08227539 38.81640625 C-33.99550537 42.08104284 -38.68719054 46.19949331 -43.4375 51 C-43.46255615 50.24493164 -43.4876123 49.48986328 -43.51342773 48.71191406 C-43.63090024 45.22449906 -43.75292779 41.73725691 -43.875 38.25 C-43.91431641 37.06277344 -43.95363281 35.87554687 -43.99414062 34.65234375 C-44.26321865 27.07676256 -44.73046964 19.54744068 -45.4375 12 C-32.12839589 2.1469697 -17.00844444 -7.68123297 0 0 Z " fill="#94C7EB" transform="translate(540.4375,305)"/>
<path d="M0 0 C24 0 24 0 29.875 5.625 C31.18188477 7.55249023 31.18188477 7.55249023 32.00390625 9.24609375 C33.95681932 13.00184477 36.29534456 16.29324388 38.8125 19.6875 C39.63447928 20.83903239 40.45339743 21.99275486 41.26953125 23.1484375 C44.50273267 27.71053437 47.74465474 32.26617216 51 36.8125 C51.84655151 38.00588989 51.84655151 38.00588989 52.71020508 39.22338867 C53.2389624 39.96049072 53.76771973 40.69759277 54.3125 41.45703125 C54.78300781 42.11678955 55.25351563 42.77654785 55.73828125 43.45629883 C56.93863986 45.13995314 56.93863986 45.13995314 59 46 C59.24105469 45.46632813 59.48210937 44.93265625 59.73046875 44.3828125 C61.34137927 41.35925738 63.30400469 38.64092629 65.3125 35.875 C65.74546387 35.27461914 66.17842773 34.67423828 66.62451172 34.05566406 C67.57196961 32.74236269 68.52058978 31.42989925 69.47021484 30.11816406 C71.63791975 27.1167265 73.78872159 24.1032849 75.93969727 21.08984375 C77.0633358 19.5298044 78.19799753 17.97764589 79.34350586 16.43359375 C81.72586662 13.22232867 83.91007064 10.1685198 85.796875 6.6328125 C87.375 3.875 87.375 3.875 92 0 C99.59 0 107.18 0 115 0 C115 35.97 115 71.94 115 109 C108.4 109 101.8 109 95 109 C94.67 83.59 94.34 58.18 94 32 C84.86878917 43.98471421 75.7800798 55.93793739 66.890625 68.09375 C66.38724609 68.77050781 65.88386719 69.44726562 65.36523438 70.14453125 C64.18427739 71.74955147 63.04862396 73.38772144 61.921875 75.03125 C60 77 60 77 57.46875 77.5546875 C54.22853062 76.82666353 53.46841058 75.78235428 51.5 73.125 C50.46939453 71.75214844 50.46939453 71.75214844 49.41796875 70.3515625 C48.61066096 69.2353272 47.80478728 68.11805391 47 67 C46.01721634 65.65343467 45.0341241 64.30709453 44.05078125 62.9609375 C41.96692225 60.09626056 39.89420586 57.22406997 37.83203125 54.34375 C32.24161062 46.54793407 26.61666886 38.77692612 21 31 C20.67 56.74 20.34 82.48 20 109 C13.4 109 6.8 109 0 109 C0 73.03 0 37.06 0 0 Z " fill="#FEFEFE" transform="translate(1789,726)"/>
<path d="M0 0 C2.62510675 1.77267356 4.13530879 3.13993453 5.953125 5.7734375 C7.98058357 8.414158 7.98058357 8.414158 11.3671875 8.859375 C18.08115953 9.15016726 18.08115953 9.15016726 24.09375 6.72265625 C25.52983219 4.95092665 25.52983219 4.95092665 26.7734375 3.0078125 C30.17161034 -1.72605833 36.56997344 -4.65289416 42.125 -5.875 C51.61164309 -6.96638372 60.99684489 -4.3286368 68.5625 1.58203125 C74.84045516 7.78151197 78.05284383 15.03706012 78.5 23.8125 C78.24049727 33.85678224 74.33760931 43.09004117 67.125 50.125 C66.465 50.125 65.805 50.125 65.125 50.125 C65.06183594 50.73859375 64.99867188 51.3521875 64.93359375 51.984375 C64.125 54.125 64.125 54.125 61.97265625 55.390625 C52.86407392 58.60992759 45.51603955 59.53266056 36.42578125 55.87890625 C29.4954039 53.60800162 22.14933107 53.90944457 14.9375 53.875 C13.87724609 53.854375 12.81699219 53.83375 11.72460938 53.8125 C3.20757237 53.7709788 -4.6556499 55.01230502 -12.58129883 58.22045898 C-17.54425687 60.17764467 -22.74600818 58.50133061 -27.625 56.875 C-31.13663066 54.98412195 -33.19853469 53.06911184 -35.875 50.125 C-36.44347656 49.62097656 -37.01195312 49.11695313 -37.59765625 48.59765625 C-44.38274892 42.47522656 -47.39734222 34.85100871 -47.96875 25.765625 C-47.65253535 16.85891222 -44.99924812 9.58145969 -38.875 3.125 C-38.3490625 2.55910156 -37.823125 1.99320312 -37.28125 1.41015625 C-26.74311556 -8.75516683 -11.67911896 -7.45312197 0 0 Z " fill="#93C6EB" transform="translate(355.875,321.875)"/>
<path d="M0 0 C2.91318115 1.93634064 5.40335511 3.80671022 7 7 C7.33 4.03 7.66 1.06 8 -2 C13.94 -2 19.88 -2 26 -2 C26 23.41 26 48.82 26 75 C20.06 75 14.12 75 8 75 C7.505 70.545 7.505 70.545 7 66 C6.16662109 67.13501953 6.16662109 67.13501953 5.31640625 68.29296875 C1.00007544 73.33717997 -4.6372777 76.40329218 -11.27050781 77.31054688 C-13.75025937 77.488314 -16.20150977 77.5573943 -18.6875 77.5625 C-19.47068604 77.56483643 -20.25387207 77.56717285 -21.06079102 77.56958008 C-31.28962669 77.28076337 -40.52280425 73.55022503 -47.7578125 66.21875 C-51.9705567 61.0533752 -54.01542518 55.29975288 -56 49 C-56.495 47.515 -56.495 47.515 -57 46 C-57.77994193 32.21602631 -57.38748554 18.9907415 -48 8 C-35.47889831 -4.82100832 -16.0906955 -8.5688464 0 0 Z " fill="#FEFEFC" transform="translate(1976,760)"/>
<path d="M0 0 C6.27 0 12.54 0 19 0 C19 35.97 19 71.94 19 109 C12.73 109 6.46 109 0 109 C0 73.03 0 37.06 0 0 Z " fill="#FFFFFF" transform="translate(2055,726)"/>
<path d="M0 0 C5.39693455 5.39693455 7.36756879 11.36989016 7.625 18.875 C7.53896604 25.28844056 6.19245972 30.13570318 2.25 35.25 C-3.78550388 40.5230114 -9.36756056 42.65411085 -17.3125 42.5234375 C-23.42259426 41.83801026 -28.16271319 39.29842081 -32.1875 34.6875 C-37.59671303 27.76802236 -38.67859488 20.93034342 -37.75 12.25 C-35.87628084 5.60247406 -31.36295566 1.06596421 -25.75 -2.75 C-16.51556517 -6.5427143 -8.20735146 -5.22286002 0 0 Z " fill="#F7A11F" transform="translate(1975.75,777.75)"/>
<path d="M0 0 C0.66 0 1.32 0 2 0 C3.31476977 1.63753983 4.55210408 3.33762273 5.75 5.0625 C6.47445313 6.07441406 7.19890625 7.08632813 7.9453125 8.12890625 C8.62335938 9.07636719 9.30140625 10.02382813 10 11 C22.86776579 28.90457697 47.32228695 41.08505795 68.671875 44.60546875 C98.46054511 47.88175494 126.14117127 41.90978028 150.01171875 23.48828125 C157.97619988 16.85641919 164.92382092 9.39881409 171 1 C171.33 1.66 171.66 2.32 172 3 C171.00304909 5.20621543 169.95905166 7.22446919 168.75 9.3125 C168.39010986 9.93479492 168.03021973 10.55708984 167.65942383 11.19824219 C158.26367139 26.89687102 144.89034994 39.07665022 129 48 C128.18015625 48.48339844 127.3603125 48.96679688 126.515625 49.46484375 C107.59445107 59.90958573 81.33231545 61.13807389 60.859375 55.2578125 C34.76819552 47.01780537 14.80722874 28.90314675 2 5 C1.29871646 3.34760065 0.61550629 1.68623078 0 0 Z " fill="#1A4DA1" transform="translate(285,432)"/>
<path d="M0 0 C6.27 0 12.54 0 19 0 C19 25.74 19 51.48 19 78 C12.73 78 6.46 78 0 78 C0 52.26 0 26.52 0 0 Z " fill="#FFFFFF" transform="translate(2019,757)"/>
<path d="M0 0 C3.57701344 2.88148305 6.9704074 6.2640822 7.48828125 10.984375 C7.65598914 16.81001765 7.32836348 20.3048351 3.25 24.8125 C0.01830319 27.54148842 -1.99237769 28.70230039 -6.1875 29.3125 C-10.76992006 28.66935333 -12.97075056 27.50158133 -16.75 24.8125 C-20.87872434 19.27537904 -20.65146382 13.4566222 -19.75 6.8125 C-18.18409719 3.45699399 -15.87336835 1.66471048 -12.9375 -0.5625 C-8.36163222 -1.8698908 -4.31624142 -1.86383152 0 0 Z " fill="#1B4CA1" transform="translate(341.75,331.1875)"/>
<path d="M0 0 C4.19107695 2.46067018 7.16212013 5.47465427 9 10 C9.45304906 15.61780838 9.21244804 19.18132794 6 24 C3.15926631 27.26684375 1.62725093 28.69973346 -2.625 29.484375 C-7.16917876 29.70664461 -10.86828744 29.67165714 -14.5625 26.8125 C-18.62511306 22.12486955 -19.47459025 18.30958298 -19.3125 12.2109375 C-18.63046491 7.38553921 -15.8275802 4.73134994 -12.3125 1.625 C-8.03340585 -0.47417826 -4.67467606 -1.08751144 0 0 Z " fill="#1A4BA0" transform="translate(411,330)"/>
<path d="M0 0 C7.366349 5.37819944 13.61534149 12.02742127 16 21 C17.25928484 31.76795255 16.6892906 40.98634984 10 50 C7.18538612 52.94275891 4.24746981 55.54635615 1 58 C0.01 57.505 0.01 57.505 -1 57 C-0.18595703 55.98292969 -0.18595703 55.98292969 0.64453125 54.9453125 C7.61718539 45.87458044 11.35192094 37.59318506 10 26 C8.49490421 18.88288037 5.64009384 12.68217441 -0.30078125 8.3046875 C-8.17782097 3.35613751 -15.6645863 0.88365755 -25 2 C-31.99742006 3.86315572 -37.4938025 7.38586802 -43 12 C-41.63314055 6.36170475 -37.43564589 3.34953447 -33 0 C-22.86750227 -5.96029278 -10.1626771 -5.85123833 0 0 Z " fill="#1C4EA2" transform="translate(423,315)"/>
<path d="M0 0 C3.34130084 2.33657401 5.8815097 4.71614478 8.1875 8.125 C7.8575 8.785 7.5275 9.445 7.1875 10.125 C6.7028125 9.72667969 6.218125 9.32835937 5.71875 8.91796875 C-1.91449663 2.88476805 -9.95230849 -0.51114139 -19.8125 0.125 C-27.92420835 1.46799807 -33.40062599 4.97162178 -38.8125 11.125 C-43.8341579 18.35163517 -45.52488624 26.93435523 -44.34375 35.578125 C-42.59410884 43.96611057 -39.34291642 49.58515236 -32.8125 55.125 C-33.8025 55.62 -33.8025 55.62 -34.8125 56.125 C-43.09087877 50.99240517 -47.90861903 44.19406546 -50.3359375 34.71875 C-52.25483386 24.27492063 -50.21518075 15.57941546 -44.203125 6.765625 C-32.55785542 -7.44374063 -15.3422071 -9.71089128 0 0 Z " fill="#1D4FA2" transform="translate(353.8125,316.875)"/>
<path d="M0 0 C7.67574926 6.84954014 12.1274715 14.74779007 13 25 C9.35951614 23.17975807 8.31011326 18.64348682 6.6328125 15.078125 C2.39655266 7.09206577 -3.69688634 2.62737729 -12.296875 -0.01171875 C-30.3321572 -4.2712036 -50.39091406 -6.05501549 -66.96484375 3.62109375 C-71.85289697 6.93296091 -74.81185226 9.84756128 -77.6875 15.0625 C-79.39078217 18.11783321 -81.05897775 21.08846663 -83 24 C-82.69648774 14.59112005 -79.18049255 7.77334654 -72.4375 1.1875 C-55.10748961 -12.93695934 -18.13340919 -12.6556085 0 0 Z " fill="#1C4EA2" transform="translate(407,383)"/>
<path d="M0 0 C3.00197464 1.80118478 4.45166366 2.90332732 6 6 C6.35017306 11.3401391 6.46830225 14.66462219 3 19 C0.38727688 21.80625816 -0.97968242 21.99770608 -4.875 22.4375 C-9.14255061 22.28594213 -11.70519103 20.73228061 -15 18 C-16.98853571 14.02292857 -16.51729937 9.32537065 -16 5 C-12.42381656 -1.28915019 -6.55244245 -1.09207374 0 0 Z " fill="#FEFCF9" transform="translate(2034,725)"/>
<path d="M0 0 C3.3125 2.0625 3.3125 2.0625 6 5 C6.875 8.8125 6.875 8.8125 7 12 C6.505 11.835 6.01 11.67 5.5 11.5 C0.12829087 10.42565817 -3.07133972 9.84333079 -7.859375 12.71484375 C-10.63303249 14.74372284 -13.32284352 16.8461649 -16 19 C-16.99 19.66 -17.98 20.32 -19 21 C-18.42706642 14.12479701 -16.59965407 8.40943548 -11.4375 3.625 C-4.97560976 -0.68292683 -4.97560976 -0.68292683 0 0 Z " fill="#1C4EA2" transform="translate(395,394)"/>
<path d="M0 0 C5.59621718 3.6519432 9.1333608 7.58342775 11 14 C11.1875 17.4375 11.1875 17.4375 11 20 C10.5875 19.61328125 10.175 19.2265625 9.75 18.828125 C4.6851975 14.26075846 -0.32482283 10.4240589 -7.25 9.625 C-9.93881489 9.99165658 -11.70194541 10.58581256 -14 12 C-14.32405231 7.35525026 -13.88473323 4.70894272 -11 1 C-7.41106872 -1.81987458 -4.23363551 -1.19953006 0 0 Z " fill="#1B4EA2" transform="translate(355,395)"/>
<path d="M0 0 C4.55555556 0.55555556 4.55555556 0.55555556 6 2 C6.04080783 3.99958364 6.04254356 6.00045254 6 8 C3.75 9.1875 3.75 9.1875 1 10 C-1.3125 8.625 -1.3125 8.625 -3 7 C-2.25 2.25 -2.25 2.25 0 0 Z " fill="#D3E1F3" transform="translate(410,334)"/>
<path d="M0 0 C1.875 0.6875 1.875 0.6875 2.875 1.6875 C3 4.6875 3 4.6875 2.875 7.6875 C2.545 8.0175 2.215 8.3475 1.875 8.6875 C-0.46444736 8.40019945 -2.7989143 8.06813221 -5.125 7.6875 C-5.3125 4.8125 -5.3125 4.8125 -5.125 1.6875 C-2.125 -0.3125 -2.125 -0.3125 0 0 Z " fill="#DEECF8" transform="translate(342.125,334.3125)"/>
<path d="M0 0 C-3.00926536 1.58900461 -6.03571475 2.76377567 -9.25 3.875 C-14.0547797 5.59053208 -18.49175574 7.61828605 -23 10 C-22.83203125 8.16796875 -22.83203125 8.16796875 -22 6 C-19.63671875 4.55078125 -19.63671875 4.55078125 -16.6875 3.3125 C-15.23923828 2.68794922 -15.23923828 2.68794922 -13.76171875 2.05078125 C-8.96501595 0.22572743 -5.16460049 -0.09931924 0 0 Z " fill="#2A5AA9" transform="translate(536,336)"/>
<path d="M0 0 C6.33393082 -0.34548714 11.10261508 0.70657253 17 3 C16.67 3.99 16.34 4.98 16 6 C14.91332031 5.566875 14.91332031 5.566875 13.8046875 5.125 C6.63111008 2.29906874 6.63111008 2.29906874 -1 2 C-0.67 1.34 -0.34 0.68 0 0 Z " fill="#3462AE" transform="translate(199,336)"/>
<path d="M0 0 C0.66 0.33 1.32 0.66 2 1 C0.49776416 5.20626034 -2.28550034 6.73900021 -6 9 C-4.68775452 5.06326356 -3.08089673 2.77280706 0 0 Z " fill="#2557A7" transform="translate(386,318)"/>
<path d="M0 0 C2.42130331 2.42130331 2.52840504 3.80111377 3.125 7.125 C3.29257812 8.03507812 3.46015625 8.94515625 3.6328125 9.8828125 C3.81457031 10.93082031 3.81457031 10.93082031 4 12 C2 11 2 11 0.875 8.8125 C-0.08328236 5.73230669 -0.14915816 3.20690052 0 0 Z " fill="#2F64AF" transform="translate(416,396)"/>
<path d="M0 0 C0.33 0.66 0.66 1.32 1 2 C-0.1875 5.0625 -0.1875 5.0625 -2 8 C-4.1875 8.875 -4.1875 8.875 -6 9 C-4.47291037 5.56404834 -2.40072955 2.88087546 0 0 Z " fill="#2558A8" transform="translate(456,433)"/>
</svg>
